<svg width="34" height="34" viewBox="0 0 34 34" fill="none" xmlns="http://www.w3.org/2000/svg">
<path fill-rule="evenodd" clip-rule="evenodd" d="M16.6667 0C12.14 0 11.5733 0.0199999 9.795 0.0999999C8.02167 0.181667 6.81 0.463333 5.75 0.875C4.63745 1.29303 3.62955 1.94884 2.79667 2.79667C1.94884 3.62955 1.29303 4.63745 0.875 5.75C0.463333 6.81 0.181667 8.02167 0.0999999 9.795C0.0183332 11.5733 0 12.14 0 16.6667C0 21.1933 0.0183332 21.76 0.0999999 23.5383C0.181667 25.3117 0.463333 26.5233 0.875 27.5833C1.29303 28.6959 1.94884 29.7038 2.79667 30.5367C3.62955 31.3845 4.63745 32.0403 5.75 32.4583C6.81 32.87 8.02167 33.1517 9.795 33.2333C11.5733 33.3133 12.14 33.3333 16.6667 33.3333C21.1933 33.3333 21.76 33.3133 23.5383 33.2333C25.3117 33.1517 26.5233 32.87 27.5833 32.4583C28.6959 32.0403 29.7038 31.3845 30.5367 30.5367C31.3845 29.7038 32.0403 28.6959 32.4583 27.5833C32.87 26.5233 33.1517 25.3117 33.2333 23.5383C33.3133 21.76 33.3333 21.1933 33.3333 16.6667C33.3333 12.14 33.3133 11.5733 33.2333 9.795C33.1517 8.02167 32.87 6.81 32.4583 5.75C32.0403 4.63745 31.3845 3.62955 30.5367 2.79667C29.7038 1.94884 28.6959 1.29303 27.5833 0.875C26.5233 0.463333 25.3117 0.181667 23.5383 0.0999999C21.76 0.0199999 21.1933 0 16.6667 0ZM16.6667 3.00333C21.1167 3.00333 21.6433 3.02 23.4 3.1C25.0267 3.175 25.9083 3.445 26.4967 3.67333C27.2733 3.97667 27.83 4.33833 28.4133 4.92C28.9967 5.50333 29.3567 6.06 29.66 6.83667C29.8867 7.425 30.16 8.30667 30.2333 9.93167C30.3133 11.69 30.33 12.215 30.33 16.6667C30.33 21.1167 30.3133 21.6433 30.2333 23.4C30.1583 25.0267 29.8867 25.9083 29.66 26.4967C29.3928 27.2206 28.9668 27.8756 28.4133 28.4133C27.83 28.9967 27.2733 29.3567 26.4967 29.66C25.9083 29.8867 25.0267 30.16 23.4017 30.2333C21.645 30.3133 21.1183 30.33 16.6667 30.33C12.2167 30.33 11.6883 30.3133 9.93333 30.2333C8.30667 30.1583 7.425 29.8867 6.83667 29.66C6.11269 29.3928 5.45777 28.9668 4.92 28.4133C4.36652 27.8756 3.94053 27.2206 3.67333 26.4967C3.445 25.9083 3.17333 25.0267 3.1 23.4017C3.02 21.6433 3.00333 21.1183 3.00333 16.6667C3.00333 12.2167 3.02 11.69 3.1 9.93333C3.175 8.30667 3.445 7.425 3.67333 6.83667C3.97667 6.06 4.33833 5.50333 4.92 4.92C5.50333 4.33667 6.06 3.97667 6.83667 3.67333C7.425 3.445 8.30667 3.17333 9.93167 3.1C11.69 3.02 12.215 3.00333 16.6667 3.00333ZM16.6667 22.2217C15.1934 22.2217 13.7805 21.6364 12.7387 20.5946C11.6969 19.5529 11.1117 18.1399 11.1117 16.6667C11.1117 15.1934 11.6969 13.7805 12.7387 12.7387C13.7805 11.6969 15.1934 11.1117 16.6667 11.1117C18.1399 11.1117 19.5529 11.6969 20.5946 12.7387C21.6364 13.7805 22.2217 15.1934 22.2217 16.6667C22.2217 18.1399 21.6364 19.5529 20.5946 20.5946C19.5529 21.6364 18.1399 22.2217 16.6667 22.2217ZM16.6667 8.10833C15.5428 8.10833 14.4299 8.3297 13.3915 8.7598C12.3532 9.18989 11.4097 9.8203 10.615 10.615C9.8203 11.4097 9.18989 12.3532 8.7598 13.3915C8.3297 14.4299 8.10833 15.5428 8.10833 16.6667C8.10833 17.7906 8.3297 18.9035 8.7598 19.9418C9.18989 20.9801 9.8203 21.9236 10.615 22.7183C11.4097 23.513 12.3532 24.1434 13.3915 24.5735C14.4299 25.0036 15.5428 25.225 16.6667 25.225C18.9365 25.225 21.1133 24.3233 22.7183 22.7183C24.3233 21.1133 25.225 18.9365 25.225 16.6667C25.225 14.3969 24.3233 12.22 22.7183 10.615C21.1133 9.01001 18.9365 8.10833 16.6667 8.10833ZM27.5633 7.77C27.5633 8.03264 27.5116 8.29272 27.4111 8.53537C27.3106 8.77802 27.1633 8.9985 26.9775 9.18421C26.7918 9.36993 26.5714 9.51725 26.3287 9.61776C26.086 9.71827 25.826 9.77 25.5633 9.77C25.3007 9.77 25.0406 9.71827 24.798 9.61776C24.5553 9.51725 24.3348 9.36993 24.1491 9.18421C23.9634 8.9985 23.8161 8.77802 23.7156 8.53537C23.6151 8.29272 23.5633 8.03264 23.5633 7.77C23.5633 7.23957 23.774 6.73086 24.1491 6.35579C24.5242 5.98071 25.0329 5.77 25.5633 5.77C26.0938 5.77 26.6025 5.98071 26.9775 6.35579C27.3526 6.73086 27.5633 7.23957 27.5633 7.77Z" fill="black"/>
</svg>
