<svg width="37" height="40" viewBox="0 0 37 40" fill="none" xmlns="http://www.w3.org/2000/svg">
<path fill-rule="evenodd" clip-rule="evenodd" d="M6.80286 6.74857C7.54571 5.98286 7.95429 4.96 7.94571 3.89714C7.90735 2.86548 7.47631 1.88745 6.74076 1.16304C6.0052 0.438642 5.0207 0.0226009 3.98857 0C2.95375 0.0235199 1.96642 0.438937 1.22606 1.16232C0.485703 1.88571 0.0475063 2.86314 0 3.89714C0.0153768 4.95877 0.437765 5.97398 1.17998 6.73321C1.92219 7.49243 2.92756 7.93771 3.98857 7.97714C5.0514 7.95216 6.06196 7.511 6.80286 6.74857ZM3.25143 13.2286C1.57429 13.1914 0.431429 13.1657 0.431429 15.2171V38.0514C0.431429 40.06 1.52286 40.02 3.09429 39.96C3.38 39.9467 3.67905 39.939 3.99143 39.9371C4.30571 39.939 4.60476 39.9467 4.88857 39.96C6.45429 40.0171 7.52286 40.06 7.52286 38.0514V15.22C7.52286 13.1686 6.40286 13.1914 4.73428 13.2314C4.49619 13.2371 4.24857 13.241 3.99143 13.2429C3.73429 13.2429 3.48667 13.239 3.24857 13.2314M14.9171 13.2743C14.1571 13.4257 13.6686 13.9114 13.6686 15.22V38.0514C13.6686 40.0629 14.7171 40.0229 16.2914 39.9629C16.5771 39.9495 16.88 39.9419 17.2 39.94C17.52 39.9419 17.8238 39.9495 18.1114 39.9629C19.6943 40.02 20.7629 40.0629 20.7629 38.0543V25.8771C20.7019 25.2547 20.774 24.6264 20.9742 24.0339C21.1744 23.4414 21.4983 22.8982 21.9243 22.4403C22.3503 21.9824 22.8688 21.6203 23.4453 21.3779C24.0219 21.1355 24.6433 21.0184 25.2686 21.0343C25.8968 20.9967 26.5258 21.0948 27.1127 21.322C27.6997 21.5492 28.2308 21.9002 28.67 22.351C29.1091 22.8018 29.446 23.342 29.6578 23.9346C29.8696 24.5273 29.9512 25.1587 29.8971 25.7857V37.9629C29.8971 39.9714 30.9429 39.9314 32.5171 39.8714C32.8029 39.8581 33.1057 39.8505 33.4257 39.8486C33.7457 39.8505 34.0495 39.8581 34.3371 39.8714C35.9114 39.9286 36.9571 39.9714 36.9571 37.9629V22.3714C37.0157 21.0916 36.8042 19.8137 36.3364 18.621C35.8686 17.4283 35.1549 16.3474 34.2419 15.4486C33.3288 14.5498 32.2368 13.8533 31.0369 13.4044C29.8369 12.9555 28.5559 12.7641 27.2771 12.8429C25.9746 12.7233 24.6632 12.9406 23.4689 13.4739C22.2746 14.0073 21.2374 14.8388 20.4571 15.8886C20.4886 14.7629 20.1229 13.2714 19.2114 13.2714C18.9486 13.2714 18.5457 13.2571 18.0886 13.2429C16.9457 13.2086 15.46 13.1657 14.9171 13.2743Z" fill="black"/>
</svg>
