<svg width="15" height="21" viewBox="0 0 15 21" fill="none" xmlns="http://www.w3.org/2000/svg">
<path d="M14.6724 7.33618C14.6724 6.37278 14.4826 5.41881 14.1139 4.52875C13.7453 3.63868 13.2049 2.82994 12.5236 2.14872C11.8424 1.46749 11.0337 0.927111 10.1436 0.558433C9.25355 0.189756 8.29958 0 7.33618 0C6.37278 0 5.41881 0.189756 4.52875 0.558433C3.63868 0.927111 2.82994 1.46749 2.14872 2.14872C1.46749 2.82994 0.927111 3.63868 0.558433 4.52875C0.189756 5.41881 -1.43558e-08 6.37278 0 7.33618C0 8.78979 0.428643 10.1417 1.15807 11.282H1.14968L7.33618 20.9605L13.5227 11.282H13.5153C14.2709 10.1047 14.6725 8.73511 14.6724 7.33618ZM7.33618 10.4803C6.50232 10.4803 5.70261 10.149 5.11298 9.55938C4.52335 8.96975 4.1921 8.17004 4.1921 7.33618C4.1921 6.50232 4.52335 5.70261 5.11298 5.11298C5.70261 4.52335 6.50232 4.1921 7.33618 4.1921C8.17004 4.1921 8.96975 4.52335 9.55938 5.11298C10.149 5.70261 10.4803 6.50232 10.4803 7.33618C10.4803 8.17004 10.149 8.96975 9.55938 9.55938C8.96975 10.149 8.17004 10.4803 7.33618 10.4803Z" fill="#41AAFF"/>
</svg>
